<mxfile host="app.diagrams.net" modified="2021-08-16T18:00:41.529Z" agent="5.0 (Windows)" etag="n-gSwq-tqeDrKvQxOzSK" version="14.9.4" type="github">
  <diagram id="Y-60Z_LJQuom28YkshFT" name="Page-1">
    <mxGraphModel dx="1104" dy="596" grid="1" gridSize="10" guides="1" tooltips="1" connect="1" arrows="1" fold="1" page="1" pageScale="1" pageWidth="850" pageHeight="1100" math="0" shadow="0">
      <root>
        <mxCell id="0" />
        <mxCell id="1" parent="0" />
        <mxCell id="qxQWl3rxHaJ_IyMpAFqf-4" style="edgeStyle=orthogonalEdgeStyle;rounded=0;orthogonalLoop=1;jettySize=auto;html=1;exitX=1;exitY=0.5;exitDx=0;exitDy=0;entryX=0;entryY=0.5;entryDx=0;entryDy=0;fontStyle=1" edge="1" parent="1" source="qxQWl3rxHaJ_IyMpAFqf-1" target="qxQWl3rxHaJ_IyMpAFqf-2">
          <mxGeometry relative="1" as="geometry" />
        </mxCell>
        <mxCell id="qxQWl3rxHaJ_IyMpAFqf-1" value="P1" style="whiteSpace=wrap;html=1;aspect=fixed;fillColor=#ffe6cc;strokeColor=#d79b00;fontStyle=1" vertex="1" parent="1">
          <mxGeometry x="40" y="160" width="80" height="80" as="geometry" />
        </mxCell>
        <mxCell id="qxQWl3rxHaJ_IyMpAFqf-5" style="edgeStyle=orthogonalEdgeStyle;rounded=0;orthogonalLoop=1;jettySize=auto;html=1;exitX=1;exitY=0.5;exitDx=0;exitDy=0;entryX=0;entryY=0.5;entryDx=0;entryDy=0;fontStyle=1" edge="1" parent="1" source="qxQWl3rxHaJ_IyMpAFqf-2" target="qxQWl3rxHaJ_IyMpAFqf-3">
          <mxGeometry relative="1" as="geometry" />
        </mxCell>
        <mxCell id="qxQWl3rxHaJ_IyMpAFqf-2" value="P2" style="whiteSpace=wrap;html=1;aspect=fixed;fillColor=#dae8fc;strokeColor=#6c8ebf;fontStyle=1" vertex="1" parent="1">
          <mxGeometry x="320" y="160" width="80" height="80" as="geometry" />
        </mxCell>
        <mxCell id="qxQWl3rxHaJ_IyMpAFqf-3" value="P3" style="whiteSpace=wrap;html=1;aspect=fixed;fillColor=#d5e8d4;strokeColor=#82b366;fontStyle=1" vertex="1" parent="1">
          <mxGeometry x="610" y="160" width="80" height="80" as="geometry" />
        </mxCell>
        <mxCell id="qxQWl3rxHaJ_IyMpAFqf-6" value="Text" style="text;html=1;align=center;verticalAlign=middle;resizable=0;points=[];autosize=1;strokeColor=none;fontStyle=1" vertex="1" parent="1">
          <mxGeometry x="180" y="180" width="40" height="20" as="geometry" />
        </mxCell>
        <mxCell id="qxQWl3rxHaJ_IyMpAFqf-7" value="Upstream or Downstream Dependencies." style="rounded=1;whiteSpace=wrap;html=1;fillColor=#f8cecc;strokeColor=#b85450;fontStyle=1" vertex="1" parent="1">
          <mxGeometry x="150" y="50" width="120" height="60" as="geometry" />
        </mxCell>
      </root>
    </mxGraphModel>
  </diagram>
</mxfile>
